<svg width="286" height="126" viewBox="0 0 286 126" fill="none" xmlns="http://www.w3.org/2000/svg">
<path d="M24.3934 0C12.115 0 2.45477 7.04204 2.45477 18.3274C2.45477 29.7932 10.2191 34.3074 23.31 37.1964L24.1226 37.377C32.4286 39.1826 37.1233 40.9883 37.1233 46.4955C37.1233 51.1902 33.512 55.2529 25.8379 55.2529C16.268 55.2529 11.8442 50.0165 11.8442 42.2522V40.6271H0.107422V42.6134C0.107422 57.4197 10.0385 65.7257 25.4768 65.7257C38.9289 65.7257 48.86 58.5934 48.86 45.8635C48.86 34.3976 41.186 29.7932 28.1853 26.9042L27.3727 26.7236C19.789 25.0083 14.1915 23.9249 14.1915 17.9662C14.1915 13.6327 18.0736 10.4728 24.3934 10.4728C31.616 10.4728 36.2204 13.6327 36.2204 20.8553V22.7512H47.7766V20.0427C47.7766 7.40317 37.9358 0 24.3934 0Z" fill="#FFC700"/>
<path d="M56.9417 1.26396V42.0717C56.9417 56.5169 65.8797 65.7257 81.6791 65.7257C97.4785 65.7257 106.417 56.5169 106.417 42.0717V1.26396H94.4992V42.6134C94.4992 50.2874 89.8948 55.0723 81.6791 55.0723C73.4634 55.0723 68.859 50.2874 68.859 42.6134V1.26396H56.9417Z" fill="#FFC700"/>
<path d="M116.551 1.26396V64.4617H128.468V12.459H129.551L143.997 64.4617H165.123V1.26396H153.205V53.2667H152.122L137.677 1.26396H116.551Z" fill="#FFC700"/>
<path d="M175.622 1.26396V64.4617H187.54V12.459H188.623L203.068 64.4617H224.194V1.26396H212.277V53.2667H211.194L196.748 1.26396H175.622Z" fill="#FFC700"/>
<path d="M228.916 1.26396L251.125 43.0648V64.4617H263.043V43.0648L285.252 1.26396H271.71L257.896 28.1682H256.271L242.458 1.26396H228.916Z" fill="#FFC700"/>
<path d="M12.6808 89.8575C6.38879 89.8575 1.5488 93.4875 1.5488 98.7147C1.5488 104.281 5.22719 106.459 10.6964 107.765L14.0844 108.588C18.7308 109.701 21.8768 111.492 21.8768 115.509C21.8768 119.672 18.5372 122.769 12.826 122.769C6.63079 122.769 2.6136 119.575 2.6136 112.412V111.25H0V112.557C0 120.591 4.64639 125.093 12.8744 125.093C19.5536 125.093 24.4904 121.366 24.4904 115.509C24.4904 110.089 20.7152 107.669 15.246 106.362L11.858 105.539C7.11479 104.377 4.16239 102.974 4.16239 98.7147C4.16239 94.5523 8.13118 92.1807 12.584 92.1807C17.5208 92.1807 21.9736 94.6491 21.9736 99.9731V102.054H24.5872V99.8279C24.5872 93.3423 19.36 89.8575 12.6808 89.8575Z" fill="#999999"/>
<path d="M39.784 90.5351L52.1259 110.96V124.415H54.7395V110.96L67.0815 90.5351H63.9839L53.7231 107.765H53.1423L42.8816 90.5351H39.784Z" fill="#999999"/>
<path d="M93.9529 89.8575C87.6609 89.8575 82.8209 93.4875 82.8209 98.7147C82.8209 104.281 86.4993 106.459 91.9685 107.765L95.3565 108.588C100.003 109.701 103.149 111.492 103.149 115.509C103.149 119.672 99.8093 122.769 94.0981 122.769C87.9029 122.769 83.8857 119.575 83.8857 112.412V111.25H81.2721V112.557C81.2721 120.591 85.9185 125.093 94.1465 125.093C100.826 125.093 105.762 121.366 105.762 115.509C105.762 110.089 101.987 107.669 96.5181 106.362L93.1301 105.539C88.3869 104.377 85.4345 102.974 85.4345 98.7147C85.4345 94.5523 89.4033 92.1807 93.8561 92.1807C98.7929 92.1807 103.246 94.6491 103.246 99.9731V102.054H105.859V99.8279C105.859 93.3423 100.632 89.8575 93.9529 89.8575Z" fill="#999999"/>
<path d="M121.758 90.5351V92.8583H133.616V124.415H136.23V92.8583H148.088V90.5351H121.758Z" fill="#999999"/>
<path d="M165.7 90.5351V124.415H186.609V122.092H168.314V108.588H185.06V106.265H168.314V92.8583H186.415V90.5351H165.7Z" fill="#999999"/>
<path d="M205.462 90.5351V124.415H208.075V93.6327H208.656L220.417 124.415H224.386L236.147 93.6327H236.728V124.415H239.342V90.5351H234.502L222.692 121.414H222.111L210.302 90.5351H205.462Z" fill="#999999"/>
<path d="M271.008 89.8575C264.716 89.8575 259.876 93.4875 259.876 98.7147C259.876 104.281 263.554 106.459 269.023 107.765L272.411 108.588C277.058 109.701 280.204 111.492 280.204 115.509C280.204 119.672 276.864 122.769 271.153 122.769C264.958 122.769 260.941 119.575 260.941 112.412V111.25H258.327V112.557C258.327 120.591 262.973 125.093 271.201 125.093C277.88 125.093 282.817 121.366 282.817 115.509C282.817 110.089 279.042 107.669 273.573 106.362L270.185 105.539C265.442 104.377 262.489 102.974 262.489 98.7147C262.489 94.5523 266.458 92.1807 270.911 92.1807C275.848 92.1807 280.3 94.6491 280.3 99.9731V102.054H282.914V99.8279C282.914 93.3423 277.687 89.8575 271.008 89.8575Z" fill="#999999"/>
</svg>
