<svg width="770" height="66" viewBox="0 0 770 66" fill="none" xmlns="http://www.w3.org/2000/svg">
<path d="M24.286 0C12.0076 0 2.34735 7.04204 2.34735 18.3274C2.34735 29.7932 10.1116 34.3074 23.2026 37.1964L24.0152 37.377C32.3211 39.1826 37.0158 40.9883 37.0158 46.4955C37.0158 51.1902 33.4045 55.2529 25.7305 55.2529C16.1606 55.2529 11.7367 50.0165 11.7367 42.2522V40.6271H0V42.6134C0 57.4197 9.93108 65.7257 25.3694 65.7257C38.8215 65.7257 48.7526 58.5934 48.7526 45.8635C48.7526 34.3976 41.0786 29.7932 28.0779 26.9042L27.2653 26.7236C19.6816 25.0083 14.0841 23.9249 14.0841 17.9662C14.0841 13.6327 17.9662 10.4728 24.286 10.4728C31.5086 10.4728 36.113 13.6327 36.113 20.8553V22.7512H47.6692V20.0427C47.6692 7.40317 37.8284 0 24.286 0Z" fill="#FFC700"/>
<path d="M56.8343 1.26396V42.0717C56.8343 56.5169 65.7722 65.7257 81.5717 65.7257C97.3711 65.7257 106.309 56.5169 106.309 42.0717V1.26396H94.3918V42.6134C94.3918 50.2874 89.7874 55.0723 81.5717 55.0723C73.356 55.0723 68.7516 50.2874 68.7516 42.6134V1.26396H56.8343Z" fill="#FFC700"/>
<path d="M116.443 1.26396V64.4617H128.361V12.459H129.444L143.889 64.4617H165.015V1.26396H153.098V53.2667H152.015L137.569 1.26396H116.443Z" fill="#FFC700"/>
<path d="M175.515 1.26396V64.4617H187.432V12.459H188.516L202.961 64.4617H224.087V1.26396H212.17V53.2667H211.086L196.641 1.26396H175.515Z" fill="#FFC700"/>
<path d="M228.808 1.26396L251.018 43.0648V64.4617H262.935V43.0648L285.145 1.26396H271.602L257.789 28.1682H256.164L242.351 1.26396H228.808Z" fill="#FFC700"/>
<path d="M406.52 0C394.783 0 385.755 6.77119 385.755 16.5217C385.755 26.9042 392.616 30.9669 402.818 33.4045L409.138 34.9393C417.805 37.0158 423.673 40.3563 423.673 47.8497C423.673 55.614 417.444 61.3921 406.791 61.3921C395.234 61.3921 387.741 55.4335 387.741 42.0717V39.9049H382.866V42.3425C382.866 57.3294 391.533 65.7257 406.881 65.7257C419.34 65.7257 428.549 58.7739 428.549 47.8497C428.549 37.7381 421.507 33.224 411.305 30.7863L404.985 29.2515C396.137 27.0848 390.63 24.4666 390.63 16.5217C390.63 8.75741 398.033 4.33356 406.339 4.33356C415.548 4.33356 423.854 8.93797 423.854 18.8691V22.7512H428.729V18.5982C428.729 6.50034 418.979 0 406.52 0Z" fill="#999999"/>
<path d="M433.603 1.26396L456.625 39.3632V64.4617H461.5V39.3632L484.522 1.26396H478.744L459.604 33.4045H458.521L439.381 1.26396H433.603Z" fill="#999999"/>
<path d="M511.173 0C499.437 0 490.408 6.77119 490.408 16.5217C490.408 26.9042 497.27 30.9669 507.472 33.4045L513.792 34.9393C522.459 37.0158 528.327 40.3563 528.327 47.8497C528.327 55.614 522.098 61.3921 511.444 61.3921C499.888 61.3921 492.395 55.4335 492.395 42.0717V39.9049H487.519V42.3425C487.519 57.3294 496.187 65.7257 511.535 65.7257C523.994 65.7257 533.202 58.7739 533.202 47.8497C533.202 37.7381 526.16 33.224 515.958 30.7863L509.639 29.2515C500.791 27.0848 495.284 24.4666 495.284 16.5217C495.284 8.75741 502.687 4.33356 510.993 4.33356C520.202 4.33356 528.508 8.93797 528.508 18.8691V22.7512H533.383V18.5982C533.383 6.50034 523.632 0 511.173 0Z" fill="#999999"/>
<path d="M539.567 1.26396V5.59752H561.686V64.4617H566.561V5.59752H588.68V1.26396H539.567Z" fill="#999999"/>
<path d="M598.06 1.26396V64.4617H637.062V60.1282H602.935V34.9393H634.173V30.6058H602.935V5.59752H636.701V1.26396H598.06Z" fill="#999999"/>
<path d="M648.756 1.26396V64.4617H653.631V7.04204H654.714L676.653 64.4617H684.056L705.995 7.04204H707.078V64.4617H711.953V1.26396H702.925L680.896 58.8642H679.813L657.784 1.26396H648.756Z" fill="#999999"/>
<path d="M747.548 0C735.811 0 726.783 6.77119 726.783 16.5217C726.783 26.9042 733.644 30.9669 743.846 33.4045L750.166 34.9393C758.833 37.0158 764.702 40.3563 764.702 47.8497C764.702 55.614 758.472 61.3921 747.819 61.3921C736.263 61.3921 728.769 55.4335 728.769 42.0717V39.9049H723.894V42.3425C723.894 57.3294 732.561 65.7257 747.909 65.7257C760.368 65.7257 769.577 58.7739 769.577 47.8497C769.577 37.7381 762.535 33.224 752.333 30.7863L746.013 29.2515C737.165 27.0848 731.658 24.4666 731.658 16.5217C731.658 8.75741 739.061 4.33356 747.367 4.33356C756.576 4.33356 764.882 8.93797 764.882 18.8691V22.7512H769.757V18.5982C769.757 6.50034 760.007 0 747.548 0Z" fill="#999999"/>
<path fill-rule="evenodd" clip-rule="evenodd" d="M299.355 0.276489H310.17V34.3473L323.663 0.950186L333.691 5.00159L321.364 35.5098L345.239 11.6351L352.887 19.2825L328.154 44.0154L359.935 31.8157L363.811 41.9124L331.405 54.352L364.245 54.352V65.1671L303.23 65.1671L299.355 65.1671L299.355 65.167V61.1157L299.355 61.1157L299.355 61.1156V55.0705L299.354 55.0704L299.355 55.0703V0.276489Z" fill="#FFC700"/>
</svg>
