<svg width="770" height="67" viewBox="0 0 770 67" fill="none" xmlns="http://www.w3.org/2000/svg">
<path d="M24.2737 0.552368C12.0015 0.552368 2.34615 7.6238 2.34615 18.9562C2.34615 30.47 10.1065 35.0029 23.1908 37.904L24.003 38.0853C32.3047 39.8985 36.9971 41.7117 36.9971 47.2419C36.9971 51.9562 33.3876 56.0359 25.7175 56.0359C16.1524 56.0359 11.7308 50.7776 11.7308 42.9809V41.3491H0V43.3436C0 58.2117 9.92604 66.5524 25.3565 66.5524C38.8018 66.5524 48.7278 59.3903 48.7278 46.6073C48.7278 35.0936 41.0577 30.47 28.0636 27.5689L27.2515 27.3875C19.6716 25.665 14.0769 24.5771 14.0769 18.5936C14.0769 14.2419 17.9571 11.0689 24.2737 11.0689C31.4926 11.0689 36.0947 14.2419 36.0947 21.4947V23.3985H47.645V20.6787C47.645 7.98643 37.8092 0.552368 24.2737 0.552368Z" fill="black"/>
<path d="M56.8054 1.8216V42.7996C56.8054 57.3051 65.7389 66.5524 81.5303 66.5524C97.3217 66.5524 106.255 57.3051 106.255 42.7996V1.8216H94.3439V43.3436C94.3439 51.0496 89.7418 55.8546 81.5303 55.8546C73.3187 55.8546 68.7167 51.0496 68.7167 43.3436V1.8216H56.8054Z" fill="black"/>
<path d="M116.384 1.8216V65.2831H128.295V13.0634H129.378L143.816 65.2831H164.932V1.8216H153.02V54.0414H151.938L137.5 1.8216H116.384Z" fill="black"/>
<path d="M175.426 1.8216V65.2831H187.337V13.0634H188.42L202.858 65.2831H223.973V1.8216H212.062V54.0414H210.979L196.541 1.8216H175.426Z" fill="black"/>
<path d="M228.692 1.8216L250.891 43.7969V65.2831H262.802V43.7969L285 1.8216H271.465L257.658 28.8381H256.034L242.228 1.8216H228.692Z" fill="black"/>
<path d="M406.661 0.552368C394.921 0.552368 385.89 7.35182 385.89 17.143C385.89 27.5689 392.753 31.6485 402.958 34.0963L409.28 35.6375C417.949 37.7227 423.819 41.0771 423.819 48.6018C423.819 56.3985 417.588 62.2007 406.932 62.2007C395.372 62.2007 387.877 56.2172 387.877 42.7996V40.6238H383V43.0716C383 58.121 391.67 66.5524 407.022 66.5524C419.484 66.5524 428.696 59.5716 428.696 48.6018C428.696 38.448 421.652 33.915 411.447 31.4672L405.125 29.926C396.275 27.7502 390.766 25.121 390.766 17.143C390.766 9.34632 398.172 4.90402 406.48 4.90402C415.691 4.90402 424 9.52765 424 19.5002V23.3985H428.876V19.2282C428.876 7.07984 419.123 0.552368 406.661 0.552368Z" fill="white"/>
<path d="M433.752 1.8216L456.78 40.0798V65.2831H461.657V40.0798L484.685 1.8216H478.905L459.76 34.0963H458.677L439.531 1.8216H433.752Z" fill="white"/>
<path d="M511.344 0.552368C499.604 0.552368 490.573 7.35182 490.573 17.143C490.573 27.5689 497.436 31.6485 507.641 34.0963L513.963 35.6375C522.632 37.7227 528.502 41.0771 528.502 48.6018C528.502 56.3985 522.271 62.2007 511.615 62.2007C500.055 62.2007 492.56 56.2172 492.56 42.7996V40.6238H487.683V43.0716C487.683 58.121 496.353 66.5524 511.705 66.5524C524.167 66.5524 533.379 59.5716 533.379 48.6018C533.379 38.448 526.335 33.915 516.13 31.4672L509.808 29.926C500.958 27.7502 495.449 25.121 495.449 17.143C495.449 9.34632 502.855 4.90402 511.163 4.90402C520.374 4.90402 528.683 9.52765 528.683 19.5002V23.3985H533.559V19.2282C533.559 7.07984 523.806 0.552368 511.344 0.552368Z" fill="white"/>
<path d="M539.745 1.8216V6.17325H561.87V65.2831H566.747V6.17325H588.872V1.8216H539.745Z" fill="white"/>
<path d="M598.254 1.8216V65.2831H637.267V60.9315H603.131V35.6375H634.377V31.2859H603.131V6.17325H636.906V1.8216H598.254Z" fill="white"/>
<path d="M648.964 1.8216V65.2831H653.841V7.6238H654.925L676.869 65.2831H684.275L706.219 7.6238H707.303V65.2831H712.18V1.8216H703.149L681.114 59.6623H680.03L657.995 1.8216H648.964Z" fill="white"/>
<path d="M747.784 0.552368C736.044 0.552368 727.013 7.35182 727.013 17.143C727.013 27.5689 733.877 31.6485 744.082 34.0963L750.403 35.6375C759.073 37.7227 764.943 41.0771 764.943 48.6018C764.943 56.3985 758.712 62.2007 748.055 62.2007C736.496 62.2007 729 56.2172 729 42.7996V40.6238H724.124V43.0716C724.124 58.121 732.793 66.5524 748.145 66.5524C760.608 66.5524 769.819 59.5716 769.819 48.6018C769.819 38.448 762.775 33.915 752.571 31.4672L746.249 29.926C737.399 27.7502 731.89 25.121 731.89 17.143C731.89 9.34632 739.295 4.90402 747.604 4.90402C756.815 4.90402 765.123 9.52765 765.123 19.5002V23.3985H770V19.2282C770 7.07984 760.247 0.552368 747.784 0.552368Z" fill="white"/>
<path fill-rule="evenodd" clip-rule="evenodd" d="M299 0.552368H310V33.713L323.15 1.16468L333.349 5.28537L320.902 36.094L345.183 11.8121L352.962 19.5903L327.539 45.0129L360 32.5524L363.942 42.8218L333.383 54.5524L364 54.5524V65.5524H310H309H307H304.727L303.259 66.1158L303.043 65.5524H299L299 61.5121L298.801 61.4317L299 60.9391L299 54.5524L299 0.552368Z" fill="black"/>
</svg>
