<svg width="364" height="126" viewBox="0 0 364 126" fill="none" xmlns="http://www.w3.org/2000/svg">
<path d="M24.2737 0.552368C12.0015 0.552368 2.34615 7.6238 2.34615 18.9562C2.34615 30.47 10.1065 35.0029 23.1908 37.904L24.003 38.0853C32.3047 39.8985 36.9971 41.7117 36.9971 47.2419C36.9971 51.9562 33.3876 56.0359 25.7175 56.0359C16.1524 56.0359 11.7308 50.7776 11.7308 42.9809V41.3491H0V43.3436C0 58.2117 9.92604 66.5524 25.3565 66.5524C38.8018 66.5524 48.7278 59.3903 48.7278 46.6073C48.7278 35.0936 41.0577 30.47 28.0636 27.5689L27.2515 27.3875C19.6716 25.665 14.0769 24.5771 14.0769 18.5936C14.0769 14.2419 17.9571 11.0689 24.2737 11.0689C31.4926 11.0689 36.0947 14.2419 36.0947 21.4947V23.3985H47.645V20.6787C47.645 7.98643 37.8092 0.552368 24.2737 0.552368Z" fill="black"/>
<path d="M56.8054 1.8216V42.7996C56.8054 57.3051 65.7389 66.5524 81.5303 66.5524C97.3217 66.5524 106.255 57.3051 106.255 42.7996V1.8216H94.3439V43.3436C94.3439 51.0496 89.7418 55.8546 81.5303 55.8546C73.3187 55.8546 68.7167 51.0496 68.7167 43.3436V1.8216H56.8054Z" fill="black"/>
<path d="M116.384 1.8216V65.2831H128.295V13.0634H129.378L143.816 65.2831H164.932V1.8216H153.02V54.0414H151.938L137.5 1.8216H116.384Z" fill="black"/>
<path d="M175.426 1.8216V65.2831H187.337V13.0634H188.42L202.858 65.2831H223.973V1.8216H212.062V54.0414H210.979L196.541 1.8216H175.426Z" fill="black"/>
<path d="M228.692 1.8216L250.891 43.7969V65.2831H262.802V43.7969L285 1.8216H271.465L257.658 28.8381H256.034L242.228 1.8216H228.692Z" fill="black"/>
<path d="M12.6846 90.5524C6.39073 90.5524 1.54927 94.1581 1.54927 99.3504C1.54927 104.879 5.22878 107.043 10.6996 108.341L14.0886 109.158C18.7365 110.264 21.8834 112.043 21.8834 116.033C21.8834 120.168 18.5428 123.245 12.8299 123.245C6.6328 123.245 2.61439 120.072 2.61439 112.956V111.802H0V113.1C0 121.081 4.6478 125.552 12.8783 125.552C19.5595 125.552 24.4978 121.85 24.4978 116.033C24.4978 110.649 20.7215 108.245 15.2506 106.947L11.8616 106.129C7.11695 104.975 4.16366 103.581 4.16366 99.3504C4.16366 95.2158 8.13365 92.8601 12.5878 92.8601C17.5261 92.8601 21.9802 95.312 21.9802 100.6V102.668H24.5946V100.456C24.5946 94.0139 19.3658 90.5524 12.6846 90.5524Z" fill="white"/>
<path d="M39.796 91.2254L52.1418 111.514V124.879H54.7562V111.514L67.1019 91.2254H64.0033L53.7395 108.341H53.1585L42.8946 91.2254H39.796Z" fill="white"/>
<path d="M93.9814 90.5524C87.6875 90.5524 82.8461 94.1581 82.8461 99.3504C82.8461 104.879 86.5256 107.043 91.9964 108.341L95.3855 109.158C100.033 110.264 103.18 112.043 103.18 116.033C103.18 120.168 99.8396 123.245 94.1267 123.245C87.9296 123.245 83.9112 120.072 83.9112 112.956V111.802H81.2968V113.1C81.2968 121.081 85.9446 125.552 94.1751 125.552C100.856 125.552 105.795 121.85 105.795 116.033C105.795 110.649 102.018 108.245 96.5474 106.947L93.1584 106.129C88.4138 104.975 85.4605 103.581 85.4605 99.3504C85.4605 95.2158 89.4305 92.8601 93.8846 92.8601C98.8229 92.8601 103.277 95.312 103.277 100.6V102.668H105.891V100.456C105.891 94.0139 100.663 90.5524 93.9814 90.5524Z" fill="white"/>
<path d="M121.795 91.2254V93.5331H133.657V124.879H136.271V93.5331H148.133V91.2254H121.795Z" fill="white"/>
<path d="M165.75 91.2254V124.879H186.666V122.572H168.365V109.158H185.116V106.85H168.365V93.5331H186.472V91.2254H165.75Z" fill="white"/>
<path d="M205.524 91.2254V124.879H208.139V94.3024H208.72L220.484 124.879H224.454L236.219 94.3024H236.8V124.879H239.414V91.2254H234.573L222.76 121.899H222.179L210.366 91.2254H205.524Z" fill="white"/>
<path d="M271.09 90.5524C264.796 90.5524 259.955 94.1581 259.955 99.3504C259.955 104.879 263.634 107.043 269.105 108.341L272.494 109.158C277.142 110.264 280.289 112.043 280.289 116.033C280.289 120.168 276.948 123.245 271.235 123.245C265.038 123.245 261.02 120.072 261.02 112.956V111.802H258.405V113.1C258.405 121.081 263.053 125.552 271.284 125.552C277.965 125.552 282.903 121.85 282.903 116.033C282.903 110.649 279.127 108.245 273.656 106.947L270.267 106.129C265.522 104.975 262.569 103.581 262.569 99.3504C262.569 95.2158 266.539 92.8601 270.993 92.8601C275.931 92.8601 280.386 95.312 280.386 100.6V102.668H283V100.456C283 94.0139 277.771 90.5524 271.09 90.5524Z" fill="white"/>
<path fill-rule="evenodd" clip-rule="evenodd" d="M299 0.552368H310V33.713L323.15 1.16468L333.349 5.28537L320.902 36.094L345.183 11.8121L352.962 19.5903L327.539 45.0129L360 32.5524L363.942 42.8218L333.383 54.5524L364 54.5524V65.5524H310H309H307H304.727L303.259 66.1158L303.043 65.5524H299L299 61.5121L298.801 61.4317L299 60.9391L299 54.5524L299 0.552368Z" fill="black"/>
</svg>
